<?xml version="1.0" standalone="no"?><!DOCTYPE svg PUBLIC "-//W3C//DTD SVG 1.1//EN" "http://www.w3.org/Graphics/SVG/1.1/DTD/svg11.dtd"><svg class="icon" width="200px" height="200.00px" viewBox="0 0 1024 1024" version="1.1" xmlns="http://www.w3.org/2000/svg"><path fill="#ffffff" d="M469.333333 170.666667v170.666666a42.666667 42.666667 0 0 1-42.666666 42.666667H170.666667a42.666667 42.666667 0 0 1-42.666667-42.666667V170.666667a42.666667 42.666667 0 0 1 42.666667-42.666667h256a42.666667 42.666667 0 0 1 42.666666 42.666667z m-42.666666 298.666666H170.666667a42.666667 42.666667 0 0 0-42.666667 42.666667v341.333333a42.666667 42.666667 0 0 0 42.666667 42.666667h256a42.666667 42.666667 0 0 0 42.666666-42.666667v-341.333333a42.666667 42.666667 0 0 0-42.666666-42.666667z m426.666666 170.666667h-256a42.666667 42.666667 0 0 0-42.666666 42.666667v170.666666a42.666667 42.666667 0 0 0 42.666666 42.666667h256a42.666667 42.666667 0 0 0 42.666667-42.666667v-170.666666a42.666667 42.666667 0 0 0-42.666667-42.666667z m0-512h-256a42.666667 42.666667 0 0 0-42.666666 42.666667v341.333333a42.666667 42.666667 0 0 0 42.666666 42.666667h256a42.666667 42.666667 0 0 0 42.666667-42.666667V170.666667a42.666667 42.666667 0 0 0-42.666667-42.666667z" /></svg>