<?xml version="1.0" standalone="no"?><!DOCTYPE svg PUBLIC "-//W3C//DTD SVG 1.1//EN" "http://www.w3.org/Graphics/SVG/1.1/DTD/svg11.dtd"><svg class="icon" width="200px" height="200.00px" viewBox="0 0 1024 1024" version="1.1" xmlns="http://www.w3.org/2000/svg"><path fill="#cbcbcb" d="M711.68 127.957h23.083A161.237 161.237 0 0 1 896 289.195v23.04a161.195 161.195 0 0 1-161.195 161.322H550.528V289.28a161.237 161.237 0 0 1 161.11-161.323z m-422.272 85.334a75.99 75.99 0 0 0-75.947 75.904v23.125a75.904 75.904 0 0 0 75.862 75.904h98.986v-98.987a75.99 75.99 0 0 0-75.818-75.946h-23.083m0-85.334h23.125a161.237 161.237 0 0 1 161.11 161.323v184.277h-184.32a161.195 161.195 0 0 1-161.195-161.322v-23.04a161.237 161.237 0 0 1 161.28-161.238z m23.04 682.667a76.032 76.032 0 0 0 75.861-75.99v-98.943h-98.986a75.904 75.904 0 0 0-75.862 75.989v23.04a75.99 75.99 0 0 0 75.947 75.904h23.04m0 85.333h-23.125a161.237 161.237 0 0 1-161.28-161.237v-23.04a161.237 161.237 0 0 1 161.28-161.323h184.32v184.278a161.237 161.237 0 0 1-161.11 161.322z m422.315-85.333a75.99 75.99 0 0 0 75.946-75.904v-23.125a75.904 75.904 0 0 0-75.861-75.904h-98.987v98.986a75.99 75.99 0 0 0 75.819 75.947h23.083m0 85.333h-23.126a161.237 161.237 0 0 1-161.109-161.322V550.357h184.32A161.195 161.195 0 0 1 896.043 711.68v23.04a161.237 161.237 0 0 1-161.28 161.237z" /></svg>